HIERARCHY
ROOT Hips
{
	OFFSET 0.000000 100.481300 0.000000
	CHANNELS 6 Xposition Yposition Zposition Xrotation Yrotation Zrotation
	JOINT Spine
	{
		OFFSET -0.279200 12.230698 -2.892100
		CHANNELS 3 Xrotation Yrotation Zrotation
		JOINT Spine1
		{
			OFFSET -0.325700 14.269203 -3.374200
			CHANNELS 3 Xrotation Yrotation Zrotation
			JOINT Spine2
			{
				OFFSET -0.372300 16.307602 -0.352600
				CHANNELS 3 Xrotation Yrotation Zrotation
				JOINT Neck
				{
					OFFSET -0.418800 17.814194 8.416900
					CHANNELS 3 Xrotation Yrotation Zrotation
					JOINT Head
					{
						OFFSET 0.000000 7.031097 3.806800
						CHANNELS 3 Xrotation Yrotation Zrotation
						JOINT HeadTop_End
						{
							OFFSET 0.000000 24.646606 12.978600
							CHANNELS 3 Xrotation Yrotation Zrotation
							End Site
							{
								OFFSET 0.000000 27.854965 0.000000
							}
						}
					}
				}
				JOINT LeftShoulder
				{
					OFFSET 16.952999 14.495407 -7.737500
					CHANNELS 3 Xrotation Yrotation Zrotation
					JOINT LeftArm
					{
						OFFSET 9.308998 -2.777710 0.208600
						CHANNELS 3 Xrotation Yrotation Zrotation
						JOINT LeftForeArm
						{
							OFFSET 29.972298 0.000000 0.000000
							CHANNELS 3 Xrotation Yrotation Zrotation
							JOINT LeftHand
							{
								OFFSET 26.026505 0.000000 0.000000
								CHANNELS 3 Xrotation Yrotation Zrotation
								JOINT LeftHandThumb1
								{
									OFFSET 12.240501 -7.147949 9.207150
									CHANNELS 3 Xrotation Yrotation Zrotation
									JOINT LeftHandThumb2
									{
										OFFSET 4.138618 -2.389435 2.389433
										CHANNELS 3 Xrotation Yrotation Zrotation
										JOINT LeftHandThumb3
										{
											OFFSET 2.726913 -1.574387 1.574386
											CHANNELS 3 Xrotation Yrotation Zrotation
											JOINT LeftHandThumb4
											{
												OFFSET 3.941010 -2.275345 2.275342
												CHANNELS 3 Xrotation Yrotation Zrotation
												End Site
												{
													OFFSET -0.005798 5.087799 0.009903
												}
											}
										}
									}
								}
								JOINT LeftHandIndex1
								{
									OFFSET 24.424698 -1.985611 5.953459
									CHANNELS 3 Xrotation Yrotation Zrotation
									JOINT LeftHandIndex2
									{
										OFFSET 6.426697 0.000000 0.000000
										CHANNELS 3 Xrotation Yrotation Zrotation
										JOINT LeftHandIndex3
										{
											OFFSET 5.337898 0.000000 0.000000
											CHANNELS 3 Xrotation Yrotation Zrotation
											JOINT LeftHandIndex4
											{
												OFFSET 4.409401 0.000000 0.000000
												CHANNELS 3 Xrotation Yrotation Zrotation
												End Site
												{
													OFFSET 0.000000 4.409363 0.014373
												}
											}
										}
									}
								}
								JOINT LeftHandMiddle1
								{
									OFFSET 23.810104 0.000000 0.000000
									CHANNELS 3 Xrotation Yrotation Zrotation
									JOINT LeftHandMiddle2
									{
										OFFSET 7.176498 0.000000 0.000000
										CHANNELS 3 Xrotation Yrotation Zrotation
										JOINT LeftHandMiddle3
										{
											OFFSET 6.774902 0.000000 0.000000
											CHANNELS 3 Xrotation Yrotation Zrotation
											JOINT LeftHandMiddle4
											{
												OFFSET 5.403328 0.000000 0.000000
												CHANNELS 3 Xrotation Yrotation Zrotation
												End Site
												{
													OFFSET -0.027702 5.403244 0.017414
												}
											}
										}
									}
								}
								JOINT LeftHandRing1
								{
									OFFSET 22.908401 -0.839279 -6.020567
									CHANNELS 3 Xrotation Yrotation Zrotation
									JOINT LeftHandRing2
									{
										OFFSET 6.337502 0.000000 0.000000
										CHANNELS 3 Xrotation Yrotation Zrotation
										JOINT LeftHandRing3
										{
											OFFSET 5.779297 0.000000 0.000000
											CHANNELS 3 Xrotation Yrotation Zrotation
											JOINT LeftHandRing4
											{
												OFFSET 4.965698 0.000000 0.000000
												CHANNELS 3 Xrotation Yrotation Zrotation
												End Site
												{
													OFFSET 0.000000 4.965668 0.016186
												}
											}
										}
									}
								}
								JOINT LeftHandPinky1
								{
									OFFSET 20.037003 -1.530319 -10.950146
									CHANNELS 3 Xrotation Yrotation Zrotation
									JOINT LeftHandPinky2
									{
										OFFSET 5.254700 0.000000 0.000000
										CHANNELS 3 Xrotation Yrotation Zrotation
										JOINT LeftHandPinky3
										{
											OFFSET 4.810204 0.000000 0.000000
											CHANNELS 3 Xrotation Yrotation Zrotation
											JOINT LeftHandPinky4
											{
												OFFSET 3.647202 0.000000 0.000000
												CHANNELS 3 Xrotation Yrotation Zrotation
												End Site
												{
													OFFSET 0.000000 3.647186 0.011889
												}
											}
										}
									}
								}
							}
						}
					}
				}
				JOINT RightShoulder
				{
					OFFSET -15.141001 14.495407 -7.737500
					CHANNELS 3 Xrotation Yrotation Zrotation
					JOINT RightArm
					{
						OFFSET -9.308998 -2.777710 0.208500
						CHANNELS 3 Xrotation Yrotation Zrotation
						JOINT RightForeArm
						{
							OFFSET -29.972300 0.000000 0.000000
							CHANNELS 3 Xrotation Yrotation Zrotation
							JOINT RightHand
							{
								OFFSET -26.026505 0.000000 0.000000
								CHANNELS 3 Xrotation Yrotation Zrotation
								JOINT RightHandThumb1
								{
									OFFSET -12.240601 -7.148026 9.207092
									CHANNELS 3 Xrotation Yrotation Zrotation
									JOINT RightHandThumb2
									{
										OFFSET -4.138618 -2.389435 2.389433
										CHANNELS 3 Xrotation Yrotation Zrotation
										JOINT RightHandThumb3
										{
											OFFSET -2.726974 -1.574417 1.574421
											CHANNELS 3 Xrotation Yrotation Zrotation
											JOINT RightHandThumb4
											{
												OFFSET -3.941010 -2.275345 2.275343
												CHANNELS 3 Xrotation Yrotation Zrotation
												End Site
												{
													OFFSET 0.005814 5.087799 0.009927
												}
											}
										}
									}
								}
								JOINT RightHandIndex1
								{
									OFFSET -24.424698 -1.985657 5.953444
									CHANNELS 3 Xrotation Yrotation Zrotation
									JOINT RightHandIndex2
									{
										OFFSET -6.426697 0.000000 0.000000
										CHANNELS 3 Xrotation Yrotation Zrotation
										JOINT RightHandIndex3
										{
											OFFSET -5.337898 0.000000 0.000000
											CHANNELS 3 Xrotation Yrotation Zrotation
											JOINT RightHandIndex4
											{
												OFFSET -4.409401 0.000000 0.000000
												CHANNELS 3 Xrotation Yrotation Zrotation
												End Site
												{
													OFFSET 0.000000 4.409363 0.014408
												}
											}
										}
									}
								}
								JOINT RightHandMiddle1
								{
									OFFSET -23.810097 0.000000 0.000000
									CHANNELS 3 Xrotation Yrotation Zrotation
									JOINT RightHandMiddle2
									{
										OFFSET -7.176498 0.000000 0.000000
										CHANNELS 3 Xrotation Yrotation Zrotation
										JOINT RightHandMiddle3
										{
											OFFSET -6.774902 0.000000 0.000000
											CHANNELS 3 Xrotation Yrotation Zrotation
											JOINT RightHandMiddle4
											{
												OFFSET -5.403328 0.000000 0.000000
												CHANNELS 3 Xrotation Yrotation Zrotation
												End Site
												{
													OFFSET 0.027702 5.403244 0.017457
												}
											}
										}
									}
								}
								JOINT RightHandRing1
								{
									OFFSET -22.908302 -0.839325 -6.020576
									CHANNELS 3 Xrotation Yrotation Zrotation
									JOINT RightHandRing2
									{
										OFFSET -6.337502 0.000000 0.000000
										CHANNELS 3 Xrotation Yrotation Zrotation
										JOINT RightHandRing3
										{
											OFFSET -5.779297 0.000000 0.000000
											CHANNELS 3 Xrotation Yrotation Zrotation
											JOINT RightHandRing4
											{
												OFFSET -4.965698 0.000000 0.000000
												CHANNELS 3 Xrotation Yrotation Zrotation
												End Site
												{
													OFFSET 0.000000 4.965668 0.016226
												}
											}
										}
									}
								}
								JOINT RightHandPinky1
								{
									OFFSET -20.037003 -1.530334 -10.950259
									CHANNELS 3 Xrotation Yrotation Zrotation
									JOINT RightHandPinky2
									{
										OFFSET -5.254700 0.000000 0.000000
										CHANNELS 3 Xrotation Yrotation Zrotation
										JOINT RightHandPinky3
										{
											OFFSET -4.810204 0.000000 0.000000
											CHANNELS 3 Xrotation Yrotation Zrotation
											JOINT RightHandPinky4
											{
												OFFSET -3.647202 0.000000 0.000000
												CHANNELS 3 Xrotation Yrotation Zrotation
												End Site
												{
													OFFSET 0.000000 3.647186 0.011917
												}
											}
										}
									}
								}
							}
						}
					}
				}
			}
		}
	}
	JOINT LeftUpLeg
	{
		OFFSET 15.427100 -6.655098 0.678600
		CHANNELS 3 Xrotation Yrotation Zrotation
		JOINT LeftLeg
		{
			OFFSET 4.081073 -39.591068 13.024000
			CHANNELS 3 Xrotation Yrotation Zrotation
			JOINT LeftFoot
			{
				OFFSET -4.081074 -37.707932 -15.979700
				CHANNELS 3 Xrotation Yrotation Zrotation
				JOINT LeftToeBase
				{
					OFFSET 5.346399 -15.068900 20.645000
					CHANNELS 3 Xrotation Yrotation Zrotation
					JOINT LeftToe_End
					{
						OFFSET 2.754700 0.931300 11.300900
						CHANNELS 3 Xrotation Yrotation Zrotation
						End Site
						{
							OFFSET 0.000000 11.669021 0.000000
						}
					}
				}
			}
		}
	}
	JOINT RightUpLeg
	{
		OFFSET -15.569500 -6.655098 0.678600
		CHANNELS 3 Xrotation Yrotation Zrotation
		JOINT RightLeg
		{
			OFFSET -4.081825 -39.591045 13.023800
			CHANNELS 3 Xrotation Yrotation Zrotation
			JOINT RightFoot
			{
				OFFSET 4.081824 -37.707954 -15.979600
				CHANNELS 3 Xrotation Yrotation Zrotation
				JOINT RightToeBase
				{
					OFFSET -5.346400 -15.068900 20.645000
					CHANNELS 3 Xrotation Yrotation Zrotation
					JOINT RightToe_End
					{
						OFFSET -2.754700 0.931300 11.300900
						CHANNELS 3 Xrotation Yrotation Zrotation
						End Site
						{
							OFFSET 0.000000 11.669021 0.000000
						}
					}
				}
			}
		}
	}
}
MOTION
Frames: 5
Frame Time: 0.033333
7.089626 77.010429 22.927471 53.334929 -13.707274 5.154032 10.211851 1.046340 -1.597825 20.428679 -0.128317 -3.877101 20.428657 -0.128313 -3.877098 -33.385995 5.014480 -14.860846 -22.774818 -11.382701 13.997603 0.000000 -0.000001 0.000001 -5.338209 -29.342025 -18.031303 -44.126437 -8.272977 -16.554039 0.023808 -40.495515 0.080847 61.357338 -2.214035 -4.607191 -7.699065 3.815887 4.398207 18.478025 -6.939534 4.774350 0.000006 0.000000 -0.000005 0.000002 0.000000 -0.000000 -6.128653 1.301361 -9.453041 0.080845 0.364939 -19.190590 -0.000000 -0.000001 -0.000003 -0.000001 -0.000001 -0.000004 -0.351145 0.618552 -5.843312 -0.373261 -1.805348 -22.674561 -0.000002 0.000003 0.000001 -0.000001 0.000000 0.000003 0.312376 4.277418 -16.154926 -0.213487 -1.457973 -17.372031 0.000002 0.000001 0.000001 0.000002 -0.000001 -0.000002 3.134600 7.065826 -22.369846 -0.104381 -1.342463 -11.260087 0.000001 0.000001 0.000002 0.000002 0.000001 -0.000002 0.016362 26.286719 3.822971 -21.146942 33.171521 -0.491744 0.099333 53.637824 -0.156949 20.174089 -7.138423 -19.778483 -4.932932 3.255408 5.144607 9.470296 4.158942 -2.676478 0.000006 -0.000017 -0.000015 -0.000001 0.000001 0.000001 -5.582936 -7.625224 25.064084 0.095302 -0.616306 14.954919 -0.000001 0.000000 -0.000000 0.000000 0.000000 0.000000 -1.266937 -3.306571 15.081778 -0.342860 1.497125 24.979590 -0.000003 -0.000008 0.000000 0.000000 0.000000 0.000001 2.006879 -4.147453 22.563021 -0.762765 2.704844 25.920155 0.000000 0.000000 0.000000 0.000000 -0.000000 -0.000001 3.176332 2.047822 29.751437 -1.076417 4.542064 27.100949 -0.000001 -0.000000 -0.000001 -0.000001 -0.000000 0.000000 -90.830581 -2.697149 11.858304 62.840131 -0.123018 -2.171341 -13.936840 3.826654 -2.320660 -9.647576 2.488936 0.539898 -0.000000 -0.000000 -0.000000 -79.183537 6.395693 -21.236352 46.398342 2.917254 2.866119 -4.221063 -6.026636 23.921305 -2.585892 -4.107487 2.249683 -0.000000 -0.000000 0.000000 
6.539945 79.393646 23.380409 53.278433 -13.060158 5.284032 10.090115 1.520708 -1.390603 20.202523 0.372225 -3.789087 20.202525 0.372225 -3.789090 -30.895879 4.345682 -14.666318 -23.974031 -11.430424 13.355114 0.000003 0.000000 -0.000000 -4.337869 -29.135623 -20.493701 -26.838462 -8.207324 -14.601667 0.015999 -33.698753 0.066308 46.798134 -0.792241 -3.080129 -7.560115 2.940739 4.120366 18.097450 -6.842403 4.687180 0.000007 0.000001 -0.000005 0.000000 -0.000000 -0.000000 -6.137675 1.612957 -10.681560 0.086523 0.377019 -19.996017 -0.000000 -0.000001 -0.000000 -0.000000 -0.000000 -0.000001 -0.421923 0.579630 -7.120159 -0.395376 -1.857466 -23.366883 -0.000002 0.000002 0.000001 -0.000001 0.000000 -0.000000 0.252501 3.987238 -16.669591 -0.233342 -1.519913 -18.136486 0.000002 0.000001 0.000001 0.000001 -0.000000 0.000001 3.020703 6.777035 -22.086322 -0.111370 -1.375828 -11.552091 -0.000000 0.000000 0.000005 0.000000 0.000000 -0.000001 -0.261945 25.328834 6.307297 -12.855329 32.318259 -0.031578 0.062106 47.244261 -0.135213 13.495071 -4.804608 -23.366195 -5.894017 2.172376 4.809794 8.994731 3.890620 -2.193327 0.000005 -0.000017 -0.000019 0.000000 -0.000001 -0.000000 -5.495551 -7.723156 25.470684 0.100601 -0.632931 15.414526 -0.000002 -0.000000 -0.000000 -0.000001 0.000000 -0.000000 -1.347557 -2.960083 15.336456 -0.379579 1.573619 26.349854 -0.000004 -0.000009 0.000003 -0.000001 0.000000 -0.000002 2.005626 -4.096783 22.954072 -0.790404 2.760937 26.499806 -0.000000 -0.000000 0.000000 -0.000000 0.000000 0.000000 3.434692 1.437710 30.918006 -1.136299 4.655436 27.845658 -0.000001 -0.000000 -0.000001 -0.000001 -0.000000 -0.000001 -87.133707 -1.208920 11.701221 57.630998 0.285591 -1.938276 -13.954362 3.441436 -2.082641 -8.402125 2.587621 0.168420 -0.000000 -0.000000 -0.000000 -78.282471 5.204622 -21.225788 39.478217 2.491913 2.409267 -3.228058 -5.324000 26.177815 -2.825914 -3.904116 2.136512 -0.000000 0.000000 0.000000 
5.771615 81.154068 23.665035 52.849128 -12.113667 5.262836 9.956431 1.873999 -1.224590 19.950814 0.804130 -3.672917 19.950796 0.804132 -3.672916 -28.926654 3.301547 -13.607190 -24.683747 -11.192220 12.448132 -0.000001 0.000001 -0.000000 -3.603475 -27.910946 -21.916381 -1.142570 -12.056270 -12.119272 0.007586 -27.223935 0.031797 24.932757 0.891105 1.765209 -7.645521 2.776730 3.935108 17.089909 -6.577914 4.461928 0.000005 0.000000 -0.000008 -0.000001 0.000001 0.000000 -6.136775 2.000830 -12.358334 0.093492 0.391266 -20.952001 -0.000001 -0.000000 -0.000002 -0.000001 0.000000 -0.000002 -0.495155 0.333748 -7.908861 -0.434619 -1.945820 -24.549481 -0.000002 0.000003 -0.000000 -0.000001 0.000000 0.000001 0.277281 3.987279 -17.806592 -0.284207 -1.666955 -19.965285 0.000001 0.000003 0.000001 -0.000000 0.000002 0.000000 2.950551 6.337069 -22.865233 -0.126698 -1.446148 -12.168380 -0.000001 -0.000001 0.000002 0.000002 -0.000001 0.000003 -0.611104 24.125063 8.801610 -5.948526 31.408160 0.735090 0.027027 40.832524 -0.117109 6.357325 -1.288552 -24.500278 -6.986288 1.058170 4.553025 8.256032 2.337779 -1.745235 0.000005 -0.000017 -0.000017 -0.000000 0.000001 -0.000002 -5.375278 -7.848770 26.282175 0.106511 -0.650986 15.915387 -0.000002 0.000001 -0.000004 0.000001 0.000000 -0.000002 -1.289543 -3.175483 16.218805 -0.410066 1.633785 27.439231 -0.000004 -0.000008 -0.000003 -0.000001 0.000001 -0.000001 1.952855 -3.826051 24.125533 -0.861985 2.899864 27.949190 -0.000000 0.000000 -0.000001 -0.000000 -0.000000 -0.000002 3.518198 1.206320 32.741874 -1.246901 4.855879 29.175723 0.000000 0.000000 -0.000003 -0.000000 0.000000 0.000002 -84.292007 -0.444094 11.403724 53.714155 0.380209 -1.835519 -13.154698 3.154820 -2.394474 -7.890797 2.631591 0.043183 0.000000 0.000000 0.000000 -77.261119 4.488534 -21.170900 34.667052 2.307859 2.132709 -1.590461 -7.190570 28.065252 -2.766532 -4.134921 2.254793 0.000000 0.000001 -0.000000 
4.842383 82.203651 23.805695 52.423208 -10.748723 5.344974 9.678187 2.063629 -1.040424 19.403126 1.076889 -3.418722 19.403147 1.076888 -3.418723 -27.599104 2.284251 -13.184716 -24.677055 -11.493496 12.013279 -0.000001 0.000000 0.000000 -3.148264 -26.215041 -22.807386 17.415937 -16.117384 -13.930857 -0.015972 -23.144928 0.010625 6.148701 1.733553 4.644371 -7.477530 2.903889 3.725842 15.921188 -6.257793 4.210701 0.000006 -0.000002 -0.000004 0.000000 -0.000002 0.000003 -6.132391 2.311803 -14.045368 0.098759 0.401683 -21.655183 -0.000001 0.000000 -0.000001 0.000001 -0.000000 -0.000000 -0.575240 0.286529 -9.247627 -0.474839 -2.031592 -25.708069 -0.000001 0.000004 -0.000000 -0.000002 0.000000 0.000000 0.310037 3.987969 -19.165294 -0.383567 -1.918090 -23.140947 0.000000 0.000001 0.000001 0.000001 -0.000000 0.000000 2.817477 5.697521 -23.856063 -0.159408 -1.585494 -13.394282 -0.000002 0.000001 0.000001 0.000000 -0.000000 0.000001 -0.973036 22.591810 11.308239 -0.769381 30.217706 2.132363 0.003693 35.441148 -0.091098 -0.061597 1.901204 -22.681731 -7.822405 0.245818 4.372120 7.456055 0.820176 -1.428463 0.000005 -0.000017 -0.000018 -0.000000 0.000000 -0.000000 -4.940917 -8.224394 29.504279 0.134499 -0.730286 18.132318 -0.000002 0.000000 -0.000004 -0.000000 0.000000 -0.000000 -1.112748 -3.686025 18.823170 -0.488877 1.777489 30.087181 -0.000002 -0.000009 0.000001 0.000000 0.000001 -0.000004 1.830873 -3.308383 26.488848 -0.996687 3.140278 30.505090 -0.000000 0.000000 0.000001 -0.000000 0.000000 -0.000003 3.660889 0.921283 35.986334 -1.488349 5.258836 31.907075 0.000001 0.000000 -0.000000 0.000001 -0.000000 0.000001 -82.534654 -0.149701 10.818475 51.056955 0.299284 -1.813971 -12.009634 2.936672 -3.025411 -7.821553 2.641069 0.037027 -0.000000 -0.000000 -0.000000 -77.046050 4.043726 -21.419350 32.276025 2.205824 1.985017 -0.922643 -8.221008 27.672836 -3.165201 -3.974261 2.155142 0.000000 0.000001 -0.000000 
3.534847 82.820442 23.836067 50.927390 -9.301126 4.925900 9.466574 2.204486 -0.751032 18.988385 1.480287 -2.924334 18.988394 1.480287 -2.924335 -24.838371 1.565271 -13.426957 -26.040788 -12.161093 12.065155 -0.000004 -0.000001 0.000000 -2.607781 -23.677372 -22.354149 25.156932 -20.350012 -20.354949 -0.049512 -20.696983 0.002137 0.817533 3.472800 4.713326 -7.063866 3.179582 3.437175 15.027483 -6.003388 4.025950 0.000004 0.000001 -0.000007 -0.000000 0.000001 -0.000002 -6.119502 2.498055 -15.001727 0.100532 0.405153 -21.889807 -0.000001 -0.000000 -0.000000 0.000001 -0.000000 -0.000000 -0.610651 0.262317 -9.828389 -0.479557 -2.041367 -25.840790 -0.000000 0.000003 -0.000000 -0.000000 0.000000 0.000000 0.312724 3.953317 -19.686728 -0.421128 -2.003571 -24.238916 0.000002 0.000001 0.000001 -0.000001 -0.000000 -0.000001 2.770222 5.446591 -24.403347 -0.172354 -1.637158 -13.850690 -0.000002 0.000001 0.000001 0.000002 0.000001 0.000001 -1.363469 21.149013 13.638973 3.101863 28.257268 4.205629 -0.004745 30.987493 -0.059526 -5.372115 3.811396 -19.026016 -8.006204 0.054066 4.287356 7.196264 -0.302466 -1.481823 0.000006 -0.000018 -0.000017 -0.000002 -0.000000 0.000000 -4.846122 -8.259408 30.207628 0.154991 -0.782803 19.618318 -0.000000 0.000002 -0.000002 -0.000001 0.000002 -0.000002 -1.010554 -3.924289 20.009599 -0.531726 1.849512 31.440689 -0.000004 -0.000007 0.000004 -0.000000 -0.000000 -0.000000 1.837019 -3.256240 27.266561 -1.052686 3.233326 31.512669 -0.000002 -0.000002 0.000004 -0.000000 -0.000001 0.000001 3.717475 0.838422 37.007143 -1.618138 5.458639 33.293136 -0.000000 0.000001 0.000001 0.000001 -0.000001 -0.000001 -80.321379 -0.359503 10.499184 49.193782 -0.130529 -1.936287 -11.126383 3.077003 -3.792827 -7.661436 2.827817 0.025294 0.000000 -0.000000 -0.000000 -75.945051 2.885963 -21.684135 31.314245 2.196594 1.940175 2.672531 -8.140674 27.807119 -3.321791 -3.785424 2.054555 0.000000 -0.000002 0.000001 
